<svg t="1762741332084" class="icon" viewBox="0 0 1024 1024" version="1.1" xmlns="http://www.w3.org/2000/svg" p-id="31901" width="200" height="200"><path d="M960 160v448H64V160a96 96 0 0 1 64-90.4A92.8 92.8 0 0 1 160 64h704a96 96 0 0 1 96 96z" fill="#CCD3EB" p-id="31902"></path><path d="M912 160v448H64V160a96 96 0 0 1 64-90.4A92.8 92.8 0 0 1 160 64h656a96 96 0 0 1 96 96z" fill="#F5F7FF" p-id="31903"></path><path d="M960 592v64a96 96 0 0 1-96 96H160a96 96 0 0 1-96-96v-64z" fill="#96A1C3" p-id="31904"></path><path d="M676.64 944H347.36l65.92-192h197.44l65.92 192z" fill="#647499" p-id="31905"></path><path d="M704 976H320a16 16 0 0 1 0-32h384a16 16 0 0 1 0 32z" fill="#0668CB" p-id="31906"></path><path d="M320 368a16 16 0 0 1-16-16v-80a16 16 0 0 1 32 0v80a16 16 0 0 1-16 16z" fill="#B4CDE1" p-id="31907"></path><path d="M288 336m16 0l32 0q16 0 16 16l0 32q0 16-16 16l-32 0q-16 0-16-16l0-32q0-16 16-16Z" fill="#96A1C3" p-id="31908"></path><path d="M320 336v32a16 16 0 0 1-16 16h-16v-32a16 16 0 0 1 16-16z" fill="#CCD3EB" p-id="31909"></path><path d="M368 416v77.44a51.2 51.2 0 0 1-32 48 42.08 42.08 0 0 1-13.6 2.88 48 48 0 0 1-38.4-16A46.72 46.72 0 0 1 272 496v-80a16 16 0 0 1 16-16h64a16 16 0 0 1 16 16z" fill="#96A1C3" p-id="31910"></path><path d="M336 400v77.44a51.2 51.2 0 0 1-32 48 42.08 42.08 0 0 1-13.6 2.88 28.16 28.16 0 0 1-6.4 0A46.72 46.72 0 0 1 272 496v-80a16 16 0 0 1 16-16z" fill="#CCD3EB" p-id="31911"></path><path d="M800 320h-23.36a16 16 0 0 1-16-11.68 156 156 0 0 0-8.64-22.56 16 16 0 0 1 2.56-18.88l16-16a16 16 0 0 0 0-22.72l-22.56-22.56a16 16 0 0 0-22.72 0l-16 16a16 16 0 0 1-18.88 2.56 156 156 0 0 0-22.56-9.44 16 16 0 0 1-11.68-16V176a16 16 0 0 0-16-16H608a16 16 0 0 0-16 16v23.36a16 16 0 0 1-11.68 16 156 156 0 0 0-22.56 9.44 16 16 0 0 1-18.88-2.56l-16-16a16 16 0 0 0-22.72 0l-22.56 22.56a16 16 0 0 0 0 22.72l16 16a16 16 0 0 1 2.4 18.24 156 156 0 0 0-9.44 22.56 16 16 0 0 1-16 11.68H448a16 16 0 0 0-16 16v32a16 16 0 0 0 16 16h23.36a16 16 0 0 1 16 11.68 156 156 0 0 0 8.64 22.56 16 16 0 0 1-2.56 18.88l-16 16a16 16 0 0 0 0 22.72l22.56 22.56a16 16 0 0 0 22.72 0l16-16a16 16 0 0 1 19.04-2.4 156 156 0 0 0 22.56 9.44 16 16 0 0 1 11.68 16V528a16 16 0 0 0 16 16h32a16 16 0 0 0 16-16v-23.36a16 16 0 0 1 11.68-16 156 156 0 0 0 22.56-8.64 16 16 0 0 1 18.88 2.56l16 16a16 16 0 0 0 22.72 0l22.56-22.56a16 16 0 0 0 0-22.72l-16-16a16 16 0 0 1-2.4-19.04 156 156 0 0 0 9.44-22.56 16 16 0 0 1 16-11.68H800a16 16 0 0 0 16-16v-32a16 16 0 0 0-16-16z m-119.84 92.32c-84.16 61.28-177.76-32-116.48-116.48a17.12 17.12 0 0 1 4.16-4.16c84.16-61.28 177.76 32 116.48 116.48a17.12 17.12 0 0 1-4.16 4.16z" fill="#0074FF" p-id="31912"></path><path d="M368 176v32a48 48 0 0 1-12.16 32l-1.92 2.08a48 48 0 0 1-37.44 13.92 45.6 45.6 0 0 1-12.48-2.72 50.88 50.88 0 0 1-32-48V176a16 16 0 0 1 16-16h64a16 16 0 0 1 16 16z" fill="#96A1C3" p-id="31913"></path><path d="M336 176v32a48 48 0 0 1-12.16 32l-1.92 2.08a45.44 45.44 0 0 1-17.92 11.2 50.88 50.88 0 0 1-32-48V176a16 16 0 0 1 16-16h32a16 16 0 0 1 16 16z" fill="#CCD3EB" p-id="31914"></path><path d="M704 976H320a16 16 0 0 1 0-32h384a16 16 0 0 1 0 32zM528 672h-32a16 16 0 0 0 0 32h32a16 16 0 0 0 0-32z" fill="#033C59" p-id="31915"></path><path d="M864 48H160a112 112 0 0 0-112 112v512a112 112 0 0 0 112 112h230.88l-58.56 170.88a16 16 0 0 0 2.08 14.4 16 16 0 0 0 12.96 6.72h329.28a16 16 0 0 0 12.96-6.72 16 16 0 0 0 2.08-14.4L633.12 784H864a112 112 0 0 0 112-112V160a112 112 0 0 0-112-112zM160 80h704a80 80 0 0 1 80 80v432H80V160a80 80 0 0 1 80-80z m494.24 864H369.76l54.88-160h174.72zM864 752H160a80 80 0 0 1-80-80v-48h864v48a80 80 0 0 1-80 80z" fill="#033C59" p-id="31916"></path><path d="M320 560a64 64 0 0 0 64-64v-96a16 16 0 0 0-16-16v-48a16 16 0 0 0-16-16h-16v-50.24A64 64 0 0 0 384 208v-48a16 16 0 0 0-16-16h-96a16 16 0 0 0-16 16v48a64 64 0 0 0 48 61.76V320h-16a16 16 0 0 0-16 16v48a16 16 0 0 0-16 16v96a64 64 0 0 0 64 64z m-32-352v-32h64v32a32 32 0 0 1-64 0z m64 288a32 32 0 0 1-64 0v-80h64z m-48-144h32v32h-32zM448 400h23.36a166.72 166.72 0 0 0 10.72 25.92l-16 16a32 32 0 0 0 0 45.44l22.56 22.56a32 32 0 0 0 45.44 0l16-16a166.72 166.72 0 0 0 25.92 10.72V528a32 32 0 0 0 32 32h32a32 32 0 0 0 32-32v-23.36a166.72 166.72 0 0 0 25.92-10.72l16 16a32 32 0 0 0 45.44 0l22.56-22.56a32 32 0 0 0 0-45.44l-16-16a166.72 166.72 0 0 0 10.72-25.92H800a32 32 0 0 0 32-32v-32a32 32 0 0 0-32-32h-23.36a166.72 166.72 0 0 0-10.72-25.92l16-16a32 32 0 0 0 0-45.44l-22.08-23.04a32 32 0 0 0-45.44 0l-16 16a166.72 166.72 0 0 0-26.4-10.24V176a32 32 0 0 0-32-32h-32a32 32 0 0 0-32 32v23.36a166.72 166.72 0 0 0-25.92 10.72l-16-16a32 32 0 0 0-45.44 0l-23.04 22.08a32 32 0 0 0 0 45.44l16 16a166.72 166.72 0 0 0-10.24 26.4H448a32 32 0 0 0-32 32v32a32 32 0 0 0 32 32z m0-64h35.52a16 16 0 0 0 5.76-1.12l1.76-0.96 3.04-2.08a8.32 8.32 0 0 0 1.6-1.76l1.92-2.88 0.96-2.08v-1.6a131.52 131.52 0 0 1 16-39.68 6.56 6.56 0 0 1 0-1.28 17.12 17.12 0 0 0 1.12-3.04 9.12 9.12 0 0 0 0-2.88 9.6 9.6 0 0 0 0-3.04 25.92 25.92 0 0 0 0-3.04 12.32 12.32 0 0 0-1.12-2.56 10.56 10.56 0 0 0-1.92-2.72 3.2 3.2 0 0 0 0-1.28l-25.12-25.12 22.56-22.56 25.12 25.12a17.28 17.28 0 0 0 4.64 3.2h1.28a18.24 18.24 0 0 0 5.28 0.96 14.88 14.88 0 0 0 5.28-1.12h3.2a131.52 131.52 0 0 1 39.68-16 3.04 3.04 0 0 0 1.28 0l3.04-1.28 2.4-1.76a13.76 13.76 0 0 0 2.08-2.24l1.76-2.4a20.32 20.32 0 0 0 0.96-2.88 10.4 10.4 0 0 0 0-3.2 3.84 3.84 0 0 0 0-1.28V176h32v35.52a3.84 3.84 0 0 0 0 1.28 10.4 10.4 0 0 0 0 3.2 20.32 20.32 0 0 0 0.96 2.88l1.76 2.4a13.76 13.76 0 0 0 2.08 2.24l2.4 1.76 3.04 1.28a3.04 3.04 0 0 0 1.28 0 131.52 131.52 0 0 1 39.68 16h3.2a14.88 14.88 0 0 0 5.28 1.12 18.24 18.24 0 0 0 5.28-0.96h1.28a17.28 17.28 0 0 0 4.64-3.2l25.12-25.12 22.56 22.56-22.08 27.04a8.96 8.96 0 0 0 0 1.28 16 16 0 0 0-1.76 2.72 12.32 12.32 0 0 0-1.12 2.56 25.92 25.92 0 0 0 0 3.04 9.6 9.6 0 0 0 0 3.04 9.12 9.12 0 0 0 0 2.88 17.12 17.12 0 0 0 1.12 3.04 6.56 6.56 0 0 1 0 1.28 131.52 131.52 0 0 1 16 39.68v1.6l0.96 2.08a22.4 22.4 0 0 0 1.92 2.88 8.32 8.32 0 0 0 1.6 1.76l3.04 2.08 1.76 0.96a16 16 0 0 0 5.76 1.12H800v32h-36.96a11.52 11.52 0 0 0-3.04 0 10.72 10.72 0 0 0-2.88 1.12 10.4 10.4 0 0 0-2.4 1.6 13.76 13.76 0 0 0-2.24 2.08l-1.6 2.4a10.56 10.56 0 0 0-1.44 3.04 3.04 3.04 0 0 0 0 1.28 131.52 131.52 0 0 1-16 39.68 6.56 6.56 0 0 1 0 1.28 17.12 17.12 0 0 0-1.12 3.04 9.12 9.12 0 0 0 0 2.88 9.6 9.6 0 0 0 0 3.04 25.92 25.92 0 0 0 0 3.04 12.32 12.32 0 0 0 1.12 2.56 16 16 0 0 0 1.76 2.72 8.96 8.96 0 0 0 0 1.28l25.12 25.12-22.56 22.56-25.76-24.16-1.28-0.8-2.56-1.76-2.88-1.12h-2.88a9.76 9.76 0 0 0-3.04 0 9.12 9.12 0 0 0-2.88 0l-3.04 1.12h-1.28a131.52 131.52 0 0 1-39.68 16 3.04 3.04 0 0 0-1.28 0l-3.04 1.28-2.4 1.76a13.76 13.76 0 0 0-2.08 2.24l-1.76 2.4a20.32 20.32 0 0 0-0.96 2.88 10.4 10.4 0 0 0 0 3.2 3.84 3.84 0 0 0 0 1.28V528H608v-35.52a3.84 3.84 0 0 0 0-1.28 10.4 10.4 0 0 0 0-3.2 20.32 20.32 0 0 0-0.96-2.88l-1.76-2.4a13.76 13.76 0 0 0-2.08-2.24l-2.4-1.76-3.04-1.28a3.04 3.04 0 0 0-1.28 0 131.52 131.52 0 0 1-39.68-16h-1.28l-3.04-1.12a9.12 9.12 0 0 0-2.88 0 9.76 9.76 0 0 0-3.04 0h-2.88l-2.88 1.12-2.56 1.76-1.28 0.8-25.12 25.12-22.56-22.56 25.12-25.12a3.2 3.2 0 0 0 0-1.28 10.56 10.56 0 0 0 1.92-2.72 12.32 12.32 0 0 0 1.12-2.56 25.92 25.92 0 0 0 0-3.04 9.6 9.6 0 0 0 0-3.04 9.12 9.12 0 0 0 0-2.88 17.12 17.12 0 0 0-1.12-3.04 6.56 6.56 0 0 1 0-1.28 131.52 131.52 0 0 1-16-39.68 3.04 3.04 0 0 0 0-1.28 17.28 17.28 0 0 0-1.28-3.04l-3.04-3.84a13.76 13.76 0 0 0-2.24-2.08 10.4 10.4 0 0 0-2.4-1.6 10.72 10.72 0 0 0-2.88-1.12 11.52 11.52 0 0 0-3.04 0H448z" fill="#033C59" p-id="31917"></path><path d="M577.6 308A62.88 62.88 0 0 1 624 288a64 64 0 1 1-32 119.36 16 16 0 0 0-21.76 5.76 16 16 0 0 0 5.76 21.92 94.56 94.56 0 0 0 48 12.96 96 96 0 1 0-69.76-162.08 16 16 0 1 0 23.36 22.08z" fill="#033C59" p-id="31918"></path><path d="M546.4 387.04h4.16a16 16 0 0 0 11.36-19.52A57.76 57.76 0 0 1 560 352a16 16 0 0 0-32 0 93.12 93.12 0 0 0 2.88 23.2 16 16 0 0 0 15.52 11.84z" fill="#033C59" p-id="31919"></path></svg>