<svg t="1762761245935" class="icon" viewBox="0 0 1024 1024" version="1.1" xmlns="http://www.w3.org/2000/svg" p-id="56166" width="200" height="200"><path d="M640.1 472.3L276.5 836c-6.1 6.1-14 5.7-18.9 3.5l-30-13.2-94.8 94.8c-8.2 8.2-21.6 8.2-29.8 0-5.4-5.4-6.2-11.7-6.2-14.9s0.8-9.5 6.2-14.9l94.8-94.8-13.2-30c-2.2-4.9-2.5-12.8 3.5-18.9l363.7-363.7-68-67.9-363.6 363.7c-16.4 16.4-27.2 37.1-31.3 59.9-1.9 10.4-2.3 20.9-1.2 31.2L35 823.4C12.9 845.5 0.7 874.9 0.7 906.2S12.9 966.9 35 989c22.8 22.8 52.8 34.2 82.8 34.2s60-11.4 82.8-34.2l52.6-52.6c10.3 1 20.8 0.6 31.2-1.2 22.8-4.1 43.5-14.9 59.9-31.3L708 540.2l-67.9-67.9z" fill="#2D96ED" p-id="56167"></path><path d="M841.2 7.3c-44.9 0-89.8 17.1-124.1 51.4L597.5 178.3l-30.2-30.2c-17.3-17.3-40.1-26-62.8-26s-45.5 8.7-62.8 26c-34.7 34.7-34.7 91 0 125.7L753.9 586c17.4 17.4 40.1 26 62.8 26s45.5-8.7 62.8-26c34.7-34.7 34.7-91 0-125.7l-33.9-33.9 119.6-119.6c68.5-68.5 68.5-179.6 0-248.1-34.2-34.3-79.1-51.4-124-51.4z" fill="#536780" p-id="56168"></path></svg>