<svg t="1764211922140" class="icon" viewBox="0 0 1024 1024" version="1.1" xmlns="http://www.w3.org/2000/svg" p-id="14572" width="200" height="200"><path d="M960 1024H64c-35.288 0-64-28.712-64-64V64c0-35.288 28.712-64 64-64h896c35.288 0 64 28.712 64 64v896c0 35.288-28.712 64-64 64zM64 32C46.352 32 32 46.352 32 64v896c0 17.648 14.352 32 32 32h896c17.648 0 32-14.352 32-32V64c0-17.648-14.352-32-32-32H64z" fill="#999999" p-id="14573"></path><path d="M865.888 721.784H780.04V280.112c0-12.208-9.896-14.112-22.072-14.112H280.096V147.056c0-12.176-5.872-22.112-18.064-22.112-12.208 0-18.104 9.936-18.104 22.112V266H158.08c-12.192 0-22.08 5.904-22.08 18.112 0 12.2 9.888 18.104 22.08 18.104h85.848v433.672c0 12.192 1.904 22.08 14.112 22.08h485.824v118.976c0 12.168 1.904 22.112 14.12 22.112a22.128 22.128 0 0 0 22.072-22.112V757.968h85.84c12.216 0 22.12-5.872 22.12-18.08-0.016-12.24-9.904-18.104-22.128-18.104m-585.792 0V302.216h463.76v419.568h-463.76m77.32-309.144a44.136 44.136 0 0 0 44.152 44.128c24.4 0 44.16-19.744 44.16-44.128s-19.76-44.216-44.16-44.216a44.208 44.208 0 0 0-44.152 44.216m352.696 237.984l-65.56-175.152a12.008 12.008 0 0 0-10.112-7.72 12.104 12.104 0 0 0-11.576 5.416l-74.152 113.184a12.32 12.32 0 0 1-15.68 4.328L406 528.936a12.24 12.24 0 0 0-15.648 4.232l-75.432 115.16a11.384 11.384 0 0 0-0.408 12.112c2.176 3.92 6.072 6.192 10.664 6.192h373.52c4.088 0 7.6-1.832 9.968-5.168 2.312-3.208 2.824-7.064 1.448-10.84" p-id="14574"></path></svg>