<svg t="1762741072167" class="icon" viewBox="0 0 1024 1024" version="1.1" xmlns="http://www.w3.org/2000/svg" p-id="25795" width="200" height="200"><path d="M848.457143 0c96.943543 0 175.542857 78.599314 175.542857 175.542857v672.914286c0 96.943543-78.599314 175.542857-175.542857 175.542857H175.542857C78.599314 1024 0 945.400686 0 848.457143V175.542857C0 78.599314 78.599314 0 175.542857 0h672.914286zM594.139429 190.171429h-178.907429a25.746286 25.746286 0 0 0-25.746286 25.746285v180.224c0 14.218971 11.527314 25.746286 25.746286 25.746286h63.839086v64.365714H236.032a25.746286 25.746286 0 0 0-25.746286 25.746286v141.604571H172.032A25.746286 25.746286 0 0 0 146.285714 679.350857v128.731429c0 14.218971 11.527314 25.746286 25.746286 25.746285h127.707429a25.746286 25.746286 0 0 0 25.746285-25.746285v-128.731429a25.746286 25.746286 0 0 0-25.746285-25.746286h-38.253715v-115.858285h217.585372v115.858285h-38.239086a25.746286 25.746286 0 0 0-25.746286 25.746286v128.731429c0 14.218971 11.527314 25.746286 25.746286 25.746285h127.707429a25.746286 25.746286 0 0 0 25.746285-25.746285v-128.731429a25.746286 25.746286 0 0 0-25.746285-25.746286h-38.268343v-115.858285h217.6v115.858285H709.632a25.746286 25.746286 0 0 0-25.746286 25.746286v128.731429c0 14.218971 11.527314 25.746286 25.746286 25.746285h127.707429A25.746286 25.746286 0 0 0 863.085714 808.082286v-128.731429a25.746286 25.746286 0 0 0-25.746285-25.746286h-38.268343l0.014628-141.604571a25.746286 25.746286 0 0 0-25.746285-25.746286H530.271086v-64.365714h63.868343a25.746286 25.746286 0 0 0 25.746285-25.746286V215.917714a25.746286 25.746286 0 0 0-25.746285-25.746285z" fill="#009688" p-id="25796"></path></svg>