<svg t="1770614430402" class="icon" viewBox="0 0 1179 1024" version="1.1" xmlns="http://www.w3.org/2000/svg" p-id="5658" width="200" height="200"><path d="M1070.670241 0H108.61126A108.61126 108.61126 0 0 0 0 108.61126v806.77748a108.61126 108.61126 0 0 0 108.61126 108.61126H1070.670241a108.61126 108.61126 0 0 0 108.61126-108.61126V108.61126A108.61126 108.61126 0 0 0 1070.670241 0zM108.61126 93.100268H1070.670241a15.510992 15.510992 0 0 1 15.510992 15.510992v806.77748a15.510992 15.510992 0 0 1-15.510992 15.510992H108.61126a15.510992 15.510992 0 0 1-15.510992-15.510992V108.61126a15.510992 15.510992 0 0 1 15.510992-15.510992z" fill="#4E4E60" p-id="5659"></path><path d="M647.412332 280.673458a46.532976 46.532976 0 0 1 34.316354 53.773727l-0.583378 2.676676-93.100268 372.366756a46.532976 46.532976 0 0 1-90.904021-19.903486l0.583378-2.676675 93.100268-372.366756a46.532976 46.532976 0 0 1 56.587667-33.870242z m129.578553 9.402681a46.532976 46.532976 0 0 1 65.544236 5.971046l155.281501 186.063271 1.853083 2.402145a46.532976 46.532976 0 0 1-1.853083 57.205361l-155.144236 186.16622-1.956032 2.196247a46.532976 46.532976 0 0 1-63.62252 3.740483l-2.196247-1.956033a46.532976 46.532976 0 0 1-3.774799-63.62252l130.402145-156.379624-130.402145-156.379625-1.818767-2.299196a46.532976 46.532976 0 0 1 7.686864-63.24504z m-374.837534 0a46.532976 46.532976 0 0 1 7.789813 63.245041l-1.818767 2.333512-130.402145 156.379624 130.402145 156.379625a46.532976 46.532976 0 0 1-3.740483 63.588204l-2.196246 1.956032a46.532976 46.532976 0 0 1-63.622521-3.740483l-1.956032-2.196246-155.144236-186.16622a46.532976 46.532976 0 0 1-1.853083-57.205362l1.853083-2.402145 155.144236-186.16622a46.532976 46.532976 0 0 1 65.578553-5.971045z" fill="#36BA82" p-id="5660"></path></svg>