<svg t="1762740940814" class="icon" viewBox="0 0 1024 1024" version="1.1" xmlns="http://www.w3.org/2000/svg" p-id="9981" width="200" height="200"><path d="M896 992H128c-54.40000031 0-96-41.59999969-96-96V128c0-54.40000031 41.59999969-96 96-96h768c54.40000031 0 96 41.59999969 96 96v768c0 54.40000031-41.59999969 96-96 96z" fill="#5883FF" p-id="9982"></path><path d="M179.19999969 476.79999969l-31.99999969 35.20000031 31.99999969 35.20000031 102.40000031 99.19999969 35.20000031-31.99999969L214.4 512l102.40000031-102.40000031-35.20000031-31.99999969zM844.80000031 547.20000031l31.99999969-35.20000031-31.99999969-35.20000031-102.40000031-99.19999969-35.20000031 31.99999969 102.40000031 102.40000031-102.40000031 102.40000031 35.20000031 31.99999969zM598.88 255.03999969l44.832 17.15200031-189.76000031 496.128-44.79999938-17.15200031z" fill="#FFFFFF" p-id="9983"></path></svg>