<svg t="1761029467039" class="icon" viewBox="0 0 1024 1024" version="1.1" xmlns="http://www.w3.org/2000/svg" p-id="3670" width="200" height="200"><path d="M921.6 1024H102.4c-58.026667 0-102.4-44.373333-102.4-102.4V102.4c0-58.026667 44.373333-102.4 102.4-102.4h819.2c58.026667 0 102.4 44.373333 102.4 102.4v819.2c0 58.026667-44.373333 102.4-102.4 102.4z" fill="#5883FF" p-id="3671"></path><path d="M157.013333 474.453333l-34.133333 37.546667 34.133333 37.546667 109.226667 105.813333 37.546667-34.133333L194.56 512l109.226667-109.226667-37.546667-34.133333zM866.986667 549.546667l34.133333-37.546667-34.133333-37.546667-109.226667-105.813333-37.546667 34.133333 109.226667 109.226667-109.226667 109.226667 37.546667 34.133333zM655.36 252.586667l-47.786667-17.066667-102.4 266.24-102.4 266.24 47.786667 17.066667 102.4-266.24z" fill="#FFFFFF" p-id="3672"></path></svg>