<svg t="1762738661473" class="icon" viewBox="0 0 1024 1024" version="1.1" xmlns="http://www.w3.org/2000/svg" p-id="71369" width="200" height="200"><path d="M479.3344 964.8128h-15.8208s7.168 1.5872 15.8208 0z m285.0816 0c-41.9328 0-45.6192-34.7648-45.824-43.7248v-53.6576H509.3888v51.5584c0 33.792-16.7936 43.4688-30.0544 45.824" fill="#F0F0FF" p-id="71370"></path><path d="M470.6816 981.4528c-7.2192 0-15.5648-1.4336-19.8656-7.168l-18.944-25.344h45.8752c5.2736-1.0752 15.7696-4.864 15.7696-30.0032v-67.4304h240.896v69.2736c0.7168 23.2448 16.6912 28.16 30.0032 28.16v31.6928c-44.3392 0-60.928-31.8464-61.6448-59.136v-0.4096-37.8368h-177.5104v35.7376c0 48.4864-30.1056 59.136-43.0592 61.44-2.2528 0.4096-6.6048 1.0752-11.4688 1.0752z" fill="#6E6E96" p-id="71371"></path><path d="M247.0912 789.9648V328.5504c0-31.5392 25.8048-57.2928 57.2928-57.2928h619.0592c31.5392 0 57.344 25.8048 57.344 57.2928v461.4144" fill="#9F9FBD" p-id="71372"></path><path d="M980.7872 744.1408v65.8944c0 31.5392-25.8048 57.344-57.344 57.344H304.4352c-31.5392 0-57.2928-25.8048-57.2928-57.344v-65.8944h733.696z" fill="#F0F0FF" p-id="71373"></path><path d="M923.4944 883.2H304.4352c-40.3456 0-73.1648-32.8192-73.1648-73.1648v-65.8944c0-8.7552 7.1168-15.8208 15.8208-15.8208s15.8208 7.1168 15.8208 15.8208v65.8944c0 22.8864 18.5856 41.472 41.472 41.472h619.0592c22.8864 0 41.472-18.5856 41.472-41.472v-50.0736h-451.2768c-8.7552 0-15.8208-7.1168-15.8208-15.8208s7.1168-15.8208 15.8208-15.8208h482.9696v81.7664c0 40.3456-32.8192 73.1648-73.1648 73.1648z" fill="#6E6E96" p-id="71374"></path><path d="M980.7872 805.8368c-8.7552 0-15.8208-7.1168-15.8208-15.8208V328.6016c0-22.8864-18.5856-41.472-41.472-41.472h-409.7536c-8.7552 0-15.8208-7.1168-15.8208-15.8208s7.1168-15.8208 15.8208-15.8208h409.7536c40.3456 0 73.1648 32.8192 73.1648 73.1648v461.4144c0 8.7552-7.1168 15.8208-15.8208 15.8208z m-717.824-15.872h-31.6928V328.5504c0-40.3456 32.8192-73.1648 73.1648-73.1648v31.6928c-22.8864 0-41.472 18.5856-41.472 41.472v461.4144z" fill="#6E6E96" p-id="71375"></path><path d="M247.0912 716.2368h733.696v16.2304H247.0912v-16.2304z m262.2464 151.1424h209.2032v36.5568H509.3376v-36.5568z" fill="#6E6E96" opacity=".15" p-id="71376"></path><path d="M780.288 980.6336H445.5424c-8.7552 0-15.8208-7.1168-15.8208-15.8208s7.1168-15.8208 15.8208-15.8208h334.7456c8.7552 0 15.8208 7.1168 15.8208 15.8208s-7.1168 15.8208-15.8208 15.8208z" fill="#6E6E96" p-id="71377"></path><path d="M923.4944 824.32H304.4352c-31.5392 0-57.2928-25.8048-57.2928-57.344v38.2464c0 31.5392 25.8048 57.344 57.2928 57.344h619.0592c31.5392 0 57.344-25.8048 57.344-57.344v-38.2464c0 31.5392-25.8048 57.344-57.344 57.344z" fill="#6E6E96" opacity=".15" p-id="71378"></path><path d="M298.1888 328.8576H924.16v361.7792H298.1888V328.8576z" fill="#A2C8F2" p-id="71379"></path><path d="M521.6768 686.2848l395.3664-357.4272v115.456l-262.2464 241.9712h-133.1712z" fill="#DEEFFF" opacity=".31" p-id="71380"></path><path d="M917.0944 444.3136l-262.2464 241.9712h262.2464V444.3136z" fill="#FFFFFF" opacity=".31" p-id="71381"></path><path d="M298.1888 706.4576c-8.7552 0-15.8208-7.1168-15.8208-15.8208V328.8576c0-8.7552 7.1168-15.8208 15.872-15.8208 8.7552 0 15.8208 7.0656 15.8208 15.8208v361.7792c0 8.7552-7.1168 15.8208-15.8208 15.8208zM924.16 706.4576h-410.4704c-8.7552 0-15.8208-7.1168-15.8208-15.8208s7.1168-15.8208 15.8208-15.8208h394.6496V344.7296h-394.6496c-8.7552 0-15.8208-7.1168-15.8208-15.872 0-8.7552 7.0656-15.8208 15.8208-15.8208h410.4704c8.7552 0 15.8208 7.1168 15.8208 15.8208v361.7792c0 8.7552-7.1168 15.8208-15.8208 15.8208z" fill="#6E6E96" p-id="71382"></path><path d="M36.3008 101.0688h477.3888v862.72H36.3008V101.0688z" fill="#D5D5E0" p-id="71383"></path><path d="M513.6896 101.0688H24.4224v862.72h60.5184V140.1856h428.7488v-39.1168z" fill="#F2F2FF" opacity=".49" p-id="71384"></path><path d="M114.6368 318.0032h318.976v37.376h-318.976v-37.376z" fill="#F2F2FF" opacity=".49" p-id="71385"></path><path d="M474.0608 979.6608H75.9296C45.3632 979.6608 20.48 954.7776 20.48 924.2112V140.6464c0-30.5664 24.8832-55.4496 55.4496-55.4496H474.112c30.5664 0 55.4496 24.8832 55.4496 55.4496V924.16c0 30.5664-24.8832 55.4496-55.4496 55.4496zM75.9296 116.8896c-13.1072 0-23.7568 10.6496-23.7568 23.7568V924.16c0 13.1072 10.6496 23.7568 23.7568 23.7568H474.112c13.1072 0 23.7568-10.6496 23.7568-23.7568V140.6464c0-13.1072-10.6496-23.7568-23.7568-23.7568H75.9296z" fill="#6E6E96" p-id="71386"></path><path d="M469.0944 140.1856v760.2176H36.3008v59.648h432.7936v3.7376h44.5952V140.1856h-44.5952z" fill="#6E6E96" opacity=".15" p-id="71387"></path><path d="M114.6368 302.1824h318.976v31.6928h-318.976v-31.6928z m0 120.3712h318.976v31.6928h-318.976v-31.6928z" fill="#6E6E96" p-id="71388"></path><path d="M114.6368 402.1248h318.976v36.3008h-318.976v-36.3008z m0-123.5968h324.7616v33.2288H114.6368V278.528z" fill="#6E6E96" opacity=".15" p-id="71389"></path><path d="M126.5152 681.7792c0 11.4688 9.3184 20.7872 20.7872 20.7872 11.4688 0 20.7872-9.3184 20.7872-20.7872 0-11.52-9.3184-20.7872-20.7872-20.8384-11.4688 0-20.7872 9.3184-20.7872 20.7872zM192.1024 681.7792c0 11.4688 9.3184 20.7872 20.7872 20.7872s20.7872-9.3184 20.7872-20.7872c0-11.4688-9.3184-20.7872-20.7872-20.7872-11.4688 0-20.7872 9.3184-20.7872 20.7872zM257.7408 681.7792c0 11.4688 9.3184 20.7872 20.7872 20.7872 11.4688 0 20.7872-9.3184 20.7872-20.7872 0-11.52-9.3184-20.7872-20.7872-20.8384-11.4688 0-20.7872 9.3184-20.7872 20.7872zM323.328 681.7792c0 11.4688 9.3184 20.7872 20.7872 20.7872 11.4688 0 20.7872-9.3184 20.7872-20.7872 0-11.52-9.3184-20.7872-20.7872-20.8384-11.4688 0-20.7872 9.3184-20.7872 20.7872zM388.9152 681.7792c0 11.4688 9.3184 20.7872 20.7872 20.7872 11.4688 0 20.7872-9.3184 20.7872-20.7872 0-11.52-9.3184-20.7872-20.7872-20.8384-11.4688 0-20.7872 9.3184-20.7872 20.7872zM126.5152 750.08c0 11.4688 9.3184 20.7872 20.7872 20.7872 11.4688 0 20.7872-9.3184 20.7872-20.7872 0-11.52-9.3184-20.7872-20.7872-20.8384-11.4688 0-20.7872 9.3184-20.7872 20.7872zM192.1024 750.08c0 11.4688 9.3184 20.7872 20.7872 20.7872s20.7872-9.3184 20.7872-20.7872c0-11.4688-9.3184-20.7872-20.7872-20.7872-11.4688 0-20.7872 9.3184-20.7872 20.7872zM257.7408 750.08c0 11.4688 9.3184 20.7872 20.7872 20.7872 11.4688 0 20.7872-9.3184 20.7872-20.7872 0-11.52-9.3184-20.7872-20.7872-20.8384-11.4688 0-20.7872 9.3184-20.7872 20.7872zM323.328 750.08c0 11.4688 9.3184 20.7872 20.7872 20.7872 11.4688 0 20.7872-9.3184 20.7872-20.7872 0-11.52-9.3184-20.7872-20.7872-20.8384-11.4688 0-20.7872 9.3184-20.7872 20.7872zM388.9152 750.08c0 11.4688 9.3184 20.7872 20.7872 20.7872 11.4688 0 20.7872-9.3184 20.7872-20.7872 0-11.52-9.3184-20.7872-20.7872-20.8384-11.4688 0-20.7872 9.3184-20.7872 20.7872zM126.5152 821.4016c0 11.4688 9.3184 20.7872 20.7872 20.7872 11.4688 0 20.7872-9.3184 20.7872-20.7872 0-11.52-9.3184-20.7872-20.7872-20.8384-11.4688 0-20.7872 9.3184-20.7872 20.7872zM192.1024 821.4016c0 11.4688 9.3184 20.7872 20.7872 20.7872s20.7872-9.3184 20.7872-20.7872c0-11.4688-9.3184-20.7872-20.7872-20.7872-11.4688 0-20.7872 9.3184-20.7872 20.7872zM257.7408 821.4016c0 11.4688 9.3184 20.7872 20.7872 20.7872 11.4688 0 20.7872-9.3184 20.7872-20.7872 0-11.52-9.3184-20.7872-20.7872-20.8384-11.4688 0-20.7872 9.3184-20.7872 20.7872zM323.328 821.4016c0 11.4688 9.3184 20.7872 20.7872 20.7872 11.4688 0 20.7872-9.3184 20.7872-20.7872 0-11.52-9.3184-20.7872-20.7872-20.8384-11.4688 0-20.7872 9.3184-20.7872 20.7872zM388.9152 821.4016c0 11.4688 9.3184 20.7872 20.7872 20.7872 11.4688 0 20.7872-9.3184 20.7872-20.7872 0-11.52-9.3184-20.7872-20.7872-20.8384-11.4688 0-20.7872 9.3184-20.7872 20.7872z" fill="#6E6E96" p-id="71390"></path><path d="M350.3104 555.0592c0 20.224 16.384 36.6592 36.608 36.6592s36.6592-16.384 36.6592-36.608c0-20.2752-16.384-36.6592-36.6592-36.6592s-36.6592 16.384-36.6592 36.6592z" fill="#93DFC8" p-id="71391"></path><path d="M386.9184 607.5392c-28.928 0-52.48-23.552-52.48-52.48s23.552-52.48 52.48-52.48 52.48 23.552 52.48 52.48-23.552 52.48-52.48 52.48z m0-73.2672c-11.4688 0-20.7872 9.3184-20.7872 20.7872s9.3184 20.7872 20.7872 20.7872 20.7872-9.3184 20.7872-20.7872-9.3184-20.7872-20.7872-20.7872z" fill="#6E6E96" p-id="71392"></path><path d="M114.6368 201.5744h318.976v33.6896h-318.976v-33.6896z" fill="#F2F2FF" opacity=".49" p-id="71393"></path><path d="M433.6128 454.2464h-318.976c-8.7552 0-15.8208-7.1168-15.8208-15.8208V197.632c0-8.7552 7.1168-15.8208 15.8208-15.8208h318.976c8.7552 0 15.8208 7.1168 15.8208 15.8208v240.7936c0 8.7552-7.1168 15.8208-15.8208 15.8208z m-303.104-31.6928H417.792V213.4016H130.5088v209.152z" fill="#6E6E96" p-id="71394"></path><path d="M344.576 243.1488h45.568v31.6928h-45.568v-31.6928zM344.576 361.984h45.568v31.6928h-45.568V361.984z" fill="#6E6E96" p-id="71395"></path></svg>